<svg xmlns="http://www.w3.org/2000/svg" width="89" height="364" viewBox="0 0 89 364"><g><g><g/><g><g><path fill="#f68f69" d="M73.8 182.4L46 187.1l-35.4-6-.3 172h8.2L45.7 191l2.5 162.1h8.2s9.1-64.7 9.7-70.6c.6-5.9 3-24.1 3-24.1z"/></g><g><path fill="#f6e8dc" d="M51.805.998c-6.3-1.9-13.3-1.2-19.1 2.6-9.7 6.6-19.9 21.7-15.1 33.4 9.6 23.1 40.4-6 52.2 14.3-1.1-13.5 2.1-33.9-7.2-43.6-3-3.2-6.8-5.4-10.8-6.7z"/></g><g><path fill="#539ed7" d="M21.1 99.9l4.4 29.1c-6.1 9-10.7 20.3-14.9 41.501-3.7 19-7 60.8-10.7 101.1h84.6c-1.2-44.5-4.6-88.7-8.3-107.9-5.4-28.2-11.3-34.5-11.3-34.5l6.7-29.7c6.1-5.7 6.4-14.8 6.4-18.9 0-4.1-1.8-16.5-1.8-16.5S59 54.6 46.5 54.4c-12.5-.1-30.1 9.7-30.1 9.7l-2.6 16.2c-1.8 11.8 7.3 19.6 7.3 19.6z"/></g><g><path fill="#fff" d="M26.5 91.4c.3 1.6 4.3 46.5 4.3 46.5h31.4l5.9-47.7z"/></g><g><path fill="#539ed7" d="M76.3 64.1c6.3 3.5 11.8 23.6 12.3 30.9.4 7.3-.1 38.9-10.1 39.9-9.9.9-53-5.9-53-5.9l1-10.3 41.7-3.9 3.3-35z"/></g><g><path fill="#539ed7" d="M16.6 64.1c-9.7 5.2-11.5 33.6-11 43.3.5 9.7-2.6 25.7 5.5 26.2s46.1-3.3 46.1-3.3l7.8-14.7-36.5-3.6z"/></g><g><path fill="#3e3f43" d="M71.504 99.397c-.1 0-.2 0-.3-.1-.3-.2-.4-.6-.2-.9 4.1-6.6 4.8-15.2 1.8-22.4-.1-.2-.1-.3 0-.5.5-.9.9-2 1.4-3 .5-1 .9-2.1 1.4-3 .1-.3.5-.4.8-.3.3.2.4.5.3.8-.5.9-.9 2-1.4 3-.4.9-.9 1.9-1.3 2.8 3.1 7.5 2.4 16.4-2 23.2-.1.3-.3.4-.5.4z"/></g><g><path fill="#3e3f43" d="M20.9 99.397c-.2 0-.4-.1-.5-.3-4.3-6.9-5-15.8-1.9-23.2-.5-.9-.9-1.8-1.3-2.8-.5-1-.9-2-1.4-3-.2-.3-.1-.7.3-.8.3-.1.7 0 .8.3.5 1 1 2 1.4 3 .5 1 .9 2 1.4 3 .1.2.1.3 0 .5-3.1 7.2-2.4 15.8 1.8 22.4.2.3.1.7-.2.9-.2-.1-.3 0-.4 0z"/></g><g><path fill="#f68f69" d="M39.7 43.6v14.8s7.5 12.7 14.4.3l-.6-15.1z"/></g><g><path fill="#f68f69" d="M39.7 43.6v14.8s7.5 12.7 14.4.3l-.6-15.1z"/></g><g><path fill="#f68f69" d="M42.704 8.402c-12.8 1.7-14.8 16.5-11.7 28.1 2.3 8.7 7.5 17.5 15.7 17.3 8.2-.2 13.2-11.4 14.6-18.3 2.3-11 1.9-29.8-18.6-27.1z"/></g><g><path fill="#f68f69" d="M32.402 33.301s-.5-4.9-4.4-3.3c-4 1.6.9 12.7 5.2 11.4 4.4-1.2-.8-8.1-.8-8.1z"/></g><g><path fill="#f68f69" d="M58.7 33.1s.1-4.9 4.2-3.6c4.1 1.3.1 12.7-4.4 11.7-4.5-.9.2-8.1.2-8.1z"/></g><g><path fill="#f6e8dc" d="M36.896 4.705c-4 1.8-8.7 9.2-9.8 13.4-1.1 4.5 0 9.3 1.1 13.8.3 1.3.7 2.7 1.9 3.4 8-16.3 33.9-10.5 36.6-20.9-10.1-14.3-15.8-15.9-29.8-9.7z"/></g><g><path fill="#d47557" d="M46.704 54.399c-1.9 0-3.9-.5-5.6-1.5-.3-.2-.4-.5-.2-.9.2-.3.5-.4.9-.2 3.1 1.8 7.4 1.7 10.4-.3.3-.2.7-.1.9.1.2.3.1.7-.1.9-1.9 1.3-4.1 1.9-6.3 1.9z"/></g><g><path fill="#3e3f43" d="M18.5 353.1l-2.6 10.3H1.7l7.1-5.2 1.5-5.1z"/></g><g><path fill="#3e3f43" d="M48.1 353.1v10.3h14.3l-7.2-5.2 1.1-5.1z"/></g><g><path fill="#f68f69" d="M51.4 114.199s4 8.3 4.1 7.9c.2-.5 9.4-6.5 9.4-6.5s4.2-3.3 2.5-4.9c-1.7-1.6 1.1-4.6.4-5.7-.7-1.1-1.1-3.5-1.1-3.5l-1.8 4.6-5.3.6s0-4.6-1.1-5.2c-1.1-.6-2.6 8.3-2.6 8.3z"/></g><g/><g><path fill="#3e3f43" d="M55.4 124c-5 4.6-11.7 7.5-18.4 7.9-.3 0-.6-.2-.6-.6 0-.3.2-.6.6-.6 6.4-.4 12.8-3.1 17.5-7.5.3-.2.6-.2.9 0 .1.2.2.5 0 .8z"/></g><g><path fill="#3e3f43" d="M21.5 98.6l3.1 13.4-1.1.2-3.1-13.4z"/></g><g/><g><path fill="#3e3f43" d="M41.5 113.1c.3.1.5.3.5.7-.1.3-.3.5-.7.5-3.2-.6-6.6-1-10.2-1.2-3.6-.3-7.3-.4-11.1-.4-.3 0-.6-.3-.5-.6 0-.3.3-.6.5-.6 3.8 0 7.5.1 11.1.4 3.7.2 7.1.6 10.4 1.2z"/></g><g/><g><path fill="#3e3f43" d="M51.799 117.099c-.2-.2-.1-.6.1-.8.3-.2.6-.1.8.1.8 1 1.5 2 2 3.1.6 1.2.9 2.5.9 4 0 .3-.3.6-.6.5-.3 0-.5-.3-.5-.6 0-1.3-.3-2.5-.8-3.5-.5-.9-1.2-1.9-1.9-2.8z"/></g><g><path fill="#3e3f43" d="M41.3 90.9c0 1.9.1 2.4 2.6 2.3l2.2-.1c.1.7.6 1.2 1.2 1.2.7 0 1.2-.6 1.3-1.2l2.5-.1c2.3-.1 2.5.4 2.5-2.4z"/></g><g><path fill="#3e3f43" d="M53.6 58.404c.1-.3.5-.4.7-.2.3.1.4.5.2.8-2 3.7-2.7 4-5.7 5.5l-.5.2.3 8.8c0 .3-.2.6-.5.6s-.6-.2-.6-.5l-.3-9.2c0-.2.1-.4.3-.5l.8-.4c2.8-1.4 3.4-1.7 5.3-5.1z"/></g><g><path fill="#3e3f43" d="M53.3 32.3c.6 0 1.1-.5 1.1-1.1 0-.6-.5-1.1-1.1-1.1-.6 0-1.1.5-1.1 1.1 0 .6.5 1.1 1.1 1.1z"/></g><g><path fill="#3e3f43" d="M40.6 32.3c.6 0 1.1-.5 1.1-1.1 0-.6-.5-1.1-1.1-1.1-.6 0-1.1.5-1.1 1.1 0 .6.5 1.1 1.1 1.1z"/></g></g></g></g></svg>