<svg xmlns="http://www.w3.org/2000/svg" width="100" height="366" viewBox="0 0 100 366"><g><g><g/><g><g><path fill="#f68f69" d="M51.8 215.3v133.8h8.3s13-60.9 13.6-66.9c.6-6-.7-24.6-.7-24.6l5.1-48.5z"/></g><g><path fill="#f68f69" d="M47.5 215.3v133.8h-8.3s-13-60.9-13.6-66.9c-.6-6 .7-24.6.7-24.6l-6.7-48.5z"/></g><g><path fill="#539ed7" d="M50.8 312.1l1 43.9v9.3h.6l1.4-5.8 2.9 5.7h7.1l-4.3-8 11-45.1z"/></g><g><path fill="#f26739" d="M73.198 61.297c4.2 9.8 18.6 11.6 23.3 21.1 3.2 6.4.7 14.5-4.3 19.7-5 5.2-12 7.9-18.9 9.8-15.4 4.2-32 5.2-47.3.5-5.5-1.7-10.8-4.1-15.1-8-4.3-3.8-7.4-9.1-7.7-14.8-.4-5.7 2.4-11.7 7.3-14.5 3-1.7 6.7-2.2 9.3-4.5 3.8-3.4 3.8-9.3 3.6-14.5-.3-9.6.2-19.2 1.4-28.7 1-7.3 2.6-15 7.5-20.5 5.7-5.9 14.6-8.2 22.4-6.2 7.8 2 14.4 7.8 17.9 15.1 3.5 7.3 4.2 15.7 2.5 23.6-1.5 7.3-4.8 15-1.9 21.9z"/></g><g><path fill="#f68f69" d="M4.9 178.9s.3 10.5 1.4 13.4c1.1 2.8 1.9 4.1 3.6 2.4 1.8-1.8 1.9 3.7 4.6 1.6 2.8-2.1 3.4-13.4 3.4-13.4l-9.2-4.2z"/></g><g><path fill="#f68f69" d="M98.301 179.5s-1.8 10.4-3.4 13c-1.5 2.6-2.5 3.8-3.9 1.9-1.5-2-2.4 3.3-4.8.9-2.5-2.5-1.4-13.7-1.4-13.7l9.7-2.8z"/></g><g><path fill="#539ed7" d="M81.8 221.9s9.3-64.5-12.3-96.2L75 95.8s9.3-7.9 7.2-19.9L82 59.2S56.8 47.3 50.6 47.3c-6.2 0-33.7 13.4-33.7 13.4v15.5c0 4.1.3 13.4 6.5 19.2l6.9 30.3s-20.9 41.8-11.7 97.8c-.1 0 25.7 7 63.2-1.6z"/></g><g><path fill="#539ed7" d="M21.5 58.5c-7.9 3.1-7.4 6.2-8.1 8.9-.7 2.7-6.8 62.6-6.5 70.5.3 7.9-6.2 6.2-3.4 17.5 2.7 11.4-6.5 10.7-2.4 18.2l1 6.2 15.4 2.8 2.4-27.2 7.9-62.9z"/></g><g><path fill="#539ed7" d="M78.9 57.8c8.4 3.1 7.1 7 7.8 9.7.7 2.7 6.9 62.6 6.5 70.5-.4 7.9 6.2 6.2 3.4 17.5-2.7 11.3 6.5 10.7 2.4 18.2l-1 6.2-12.7 3.1-5.2-27.5-7.9-63z"/></g><g><path fill="#3e3f43" d="M43.5 77.9h.1c6.7-1.5 13-5.4 17.1-10.9.2-.3.2-.7-.1-.9-.3-.2-.7-.2-.9.1-4 5.2-10 9-16.4 10.4-.3.1-.6.4-.5.8.1.2.4.5.7.5z"/></g><g><path fill="#3e3f43" d="M23.598 95.4c.1 0 .2 0 .3-.1.3-.2.4-.6.2-.9-4.2-6.7-4.9-15.5-1.8-22.8l.1-.3V71c-.5-1-1-2-1.4-3-.5-1-1-2.1-1.5-3.1-.2-.3-.6-.5-.9-.3-.3.2-.4.5-.3.9.5 1 1 2 1.4 3 .4 1 .9 1.9 1.3 2.8-3.1 7.7-2.4 16.7 2 23.8.2.2.4.3.6.3z"/></g><g><path fill="#3e3f43" d="M75.104 94.2c-.1 0-.2 0-.3-.1-.3-.2-.4-.6-.2-.9 4.2-6.7 4.9-15.5 1.8-22.8l-.1-.3.1-.3c.5-1 .9-2 1.4-3 .5-1.1.9-2.1 1.4-3.1.2-.3.6-.5.9-.3.3.2.5.6.3.9-.5 1-1 2-1.4 3-.4 1-.9 1.9-1.3 2.8 3.2 7.7 2.4 16.7-2 23.8-.2.1-.4.3-.6.3z"/></g><g><path fill="#3e3f43" d="M83.895 176.595c-.3 0-.5-.3-.6-.6-.9-9.8-2.5-19.5-4.9-29-.1-.3.1-.7.5-.8.3-.1.7.1.8.5 2.4 9.6 4.1 19.4 4.9 29.2 0 .4-.2.7-.6.7h-.1z"/></g><g><path fill="#f68f69" d="M56.1 38.4v15.1s-7.7 13-14.7.3l.6-15.4z"/></g><g><path fill="#f68f69" d="M53 2.498c13 1.7 15.1 16.8 12 28.7-2.4 8.9-7.7 17.9-16 17.7-8.4-.2-13.4-11.7-14.9-18.7-2.4-11.3-2-30.4 18.9-27.7z"/></g><g><path fill="#f68f69" d="M63.5 27.903s.5-5 4.5-3.3c4 1.7-.9 12.9-5.4 11.7-4.5-1.4.9-8.4.9-8.4z"/></g><g><path fill="#f68f69" d="M36.698 27.696s-.1-5-4.3-3.7c-4.1 1.4 0 13 4.5 12 4.6-1-.2-8.3-.2-8.3z"/></g><g><path fill="#d47557" d="M48.904 49.504c2 0 4-.5 5.7-1.5.3-.2.4-.6.2-.9-.2-.3-.6-.4-.9-.2-3.2 1.9-7.5 1.7-10.6-.4-.3-.2-.7-.1-.9.2-.2.3-.1.7.2.9 1.8 1.3 4.1 1.9 6.3 1.9z"/></g><g><path fill="#f26739" d="M42.395 10.698c-.2 7.9 1.3 16.1 5.5 22.8 4.1 6.7 11.2 12 19.1 12.7 2.8-6.9 4.9-14.4 4.1-21.7-.8-7.3-4.2-14.6-10.1-19-6-4.5-14.5-5.6-20.9-2-5.4 3-8.8 8.9-10.2 14.9-1.4 6-1.3 9.4-1.1 15.6 9-4.9 14.9-13.1 13.6-23.3z"/></g><g><path fill="#539ed7" d="M48.6 312.1l-1 43.9v9.3H47l-1.4-5.8-2.9 5.7h-7.2l4.4-8-11-45.1z"/></g><g><path fill="#3e3f43" d="M43.4 29.5c.6 0 1.1-.5 1.1-1.1 0-.6-.5-1.1-1.1-1.1-.6 0-1.1.5-1.1 1.1 0 .6.5 1.1 1.1 1.1z"/></g><g/><g/></g></g></g></svg>