<svg xmlns="http://www.w3.org/2000/svg" width="237" height="400" viewBox="0 0 237 400"><g><g><g><g/><g><g><path fill="#f68f69" d="M107.31 113.8c1.77 8.184 4.536 21.234 4.978 24.44.332 2.765 3.65 21.787 6.417 37.048.663 5.308 3.65 15.372 3.871 19.574-.663.774-1.99 2.212-2.433 3.982-.332 1.327-1.439 7.52-1.66 8.847-.442 2.654.11 2.764.775 2.875.553.111 1.77-2.986 3.208-7.078.332-1.327 2.544.553 1.327 3.981-.885 2.544-2.323 5.419-2.323 7.189.11 1.769 1.217 3.76 2.213 3.981 1.327.221 3.982-4.755 6.195-9.179 2.766-5.64 1.77-7.962 1.106-18.579-.996-16.81-.11-38.264-.774-56.069l-5.421-28.642z"/></g><g><path fill="#3e3f43" d="M52.44 49.88c6.748-3.208 18.696-3.208 27.435-.111l1.438 2.543-.884 5.42H52.882c0-2.544-.442-5.42-.442-7.853z"/></g><g><path fill="#f68f69" d="M24.777 113.8c-1.77 8.184-4.535 21.234-4.978 24.44-.332 2.765-3.65 21.787-6.306 37.048-.663 5.308-3.65 15.372-3.982 19.574.774.774 1.991 2.212 2.434 3.982.331 1.327 1.438 7.52 1.659 8.847.332 2.654-.11 2.764-.774 2.875-.554.111-1.77-2.986-3.209-7.078-.331-1.327-2.544.553-1.327 3.981.885 2.544 2.323 5.419 2.323 7.189 0 1.769-1.217 3.76-2.212 3.981-1.328.332-3.983-4.755-6.196-9.179-2.765-5.64-1.77-7.962-1.106-18.579 1.106-16.81.11-38.264.775-56.069l5.42-28.642z"/></g><g><path fill="#3e3f43" d="M46.46 256.894l2.434-9.732 23.232-.332.885 9.953 14.824 143.213h18.585l-10.62-8.073s9.403-66.575 10.952-135.14c.553-18.579-3.872-54.963-4.536-72.215L70.798 62.036l-4.646-6.746-39.604 128.504c-.775 13.824-9.957 51.866-11.395 72.989-3.208 59.165 2.545 134.365 2.545 134.365L5.75 399.996h18.585z"/></g><g><path fill="#539ed7" d="M109.963 245.511c-12.722 3.207-27.878 6.083-40.379 6.746l-2.323-53.083-13.165 53.304c-9.735.664-20.023.111-44.25-6.193l12.39-59.386 4.646-72.215-8.297 41.692-6.305 35.721L0 191.433l.11-55.847L5.09 108.16s9.624-37.158 11.837-39.812c1.991-2.433 27.656-12.718 36.728-14.598v.553c12.169 10.395 24.116-.221 24.89-.221 10.178 2.875 33.521 11.943 35.401 14.266 2.102 2.654 13.276 36.162 13.276 36.162l4.535 36.052 2.323 50.761-16.262 1.105-13.496-77.965-1.438 63.368z"/></g><g><path fill="#f68f69" d="M78.762 37.82v16.146c0-.995-10.178 11.501-25.002.332l.996-16.478z"/></g><g><path fill="#f68f69" d="M66.38.226C80.43.668 82.422 16.261 82.2 29.421c-.221 13.16-5.974 21.897-14.934 22.56-8.961.664-15.378-8.294-18.143-20.237C46.468 19.69 43.813-.438 66.38.226z"/></g><g><path fill="#f68f69" d="M80.203 26.094s0-5.308 4.536-3.981c4.425 1.327.443 13.824-4.536 12.939-4.867-.885 0-8.958 0-8.958z"/></g><g><path fill="#f68f69" d="M51.777 29.861s-.775-5.308-4.979-3.428c-4.314 1.88 1.328 13.824 6.085 12.275 4.757-1.437-1.106-8.847-1.106-8.847z"/></g><g><path fill="#d47557" d="M66.374 52.748h.995c4.094-.331 7.523-2.211 10.178-5.419.221-.331.221-.774-.11-.995-.333-.221-.775-.221-.996.11-2.434 2.987-5.642 4.645-9.293 4.977-3.761.332-7.19-1.216-10.178-4.534-.22-.332-.663-.332-.995 0-.332.221-.332.664-.11.995 3.097 3.097 6.637 4.866 10.509 4.866z"/></g><g/><g><path fill="#d47557" d="M66.929.005c11.615.664 15.377 11.28 15.377 22.45 0 0-1.55 2.543-1.328 6.303l-1.991.664-.774-9.953c-13.054 1.106-20.577.663-23.564-6.636 0 0-3.097 1.66-3.43 8.184l.333 8.294h-1.55s-.442-2.433-1.99-3.096C45.577 14.713 46.904-.99 66.928.005z"/></g><g><path fill="#fff" d="M79.65 50.1c1.106.553 1.549 1.106 1.66 1.77l.995 3.76c.332.552.332 1.105-.221 1.548-4.314 3.76-7.19 7.52-10.73 11.28-1.328-3.207-2.766-6.414-4.094-9.621 8.518-3.097 14.382-6.083 12.39-8.737z"/></g><g/><g><path fill="#fff" d="M52.992 49.99c-1.107.553-1.55 1.106-1.66 1.77l-.996 3.76c-.331.552-.331 1.105.222 1.548 4.314 3.76 7.19 7.52 10.73 11.28 1.328-3.207 2.766-6.414 4.094-9.621C56.863 55.63 51 52.644 52.992 49.99z"/></g><g/><g><path fill="#fff" d="M55.646 35.716c3.76 0 7.301-2.986 11.062-2.986 3.651 0 7.744 1.88 11.395 1.88l.11 12.054c-6.084 9.068-17.59 8.958-23.563.553z"/></g><g/><g/><g/><g/><g><path fill="#3e3f43" d="M73.127 28.203c.664 0 1.217-.553 1.217-1.217 0-.663-.553-1.216-1.217-1.216s-1.217.553-1.217 1.216c0 .664.553 1.217 1.217 1.217z"/></g><g><path fill="#3e3f43" d="M59.181 28.203c.664 0 1.217-.553 1.217-1.217 0-.663-.553-1.216-1.217-1.216s-1.217.553-1.217 1.216c-.11.664.443 1.217 1.217 1.217z"/></g><g><path fill="#3e3f43" d="M193.82 228.48h-29.87v75.311h29.87z"/></g><g><path fill="#f68f69" d="M223.572 193.754c1.107 3.87 2.324 7.74 2.656 9.953-.664.774-1.77 2.211-2.102 3.87-.222 1.217-.885 7.188-.996 8.516-.221 2.432.332 2.654.885 2.654.553.11 1.549-2.986 2.655-6.857.332-1.216 2.434.332 1.549 3.65-.775 2.432-1.991 5.308-1.77 6.967.11 1.658 1.327 3.538 2.323 3.65 1.217.11 3.43-4.756 5.31-9.07 2.323-5.418 1.217-7.63 0-17.583-.221-1.99-.442-4.202-.664-6.414z"/></g><g><path fill="#f68f69" d="M215.167 210.447l-29.095 4.977-37.06-6.304-.332 180.039h8.518l28.431-169.754 2.655 169.754h8.519s9.513-67.791 10.177-73.984c.664-6.193 3.098-25.215 3.098-25.215z"/></g><g><path fill="#fcd032" d="M192.155 20.682c-6.638-1.99-13.94-1.327-20.024 2.765-5.752 3.87-8.85 12.164-10.73 21.122-11.616 53.746 50.335 50.871 50.667 15.482.11-12.607-2.434-25.877-8.519-32.402-3.208-3.318-7.19-5.75-11.394-6.967z"/></g><g><path fill="#539ed7" d="M160.075 124.085l4.647 30.522c-6.417 9.4-11.284 21.344-15.599 43.462-3.872 19.906-7.412 63.588-11.173 105.833l38.72-.221 9.292-71.993.332 71.993h40.047c-1.217-46.668-4.647-92.673-8.519-112.801-5.642-29.527-11.837-36.162-11.837-36.162l7.08-31.076c6.306-5.971 6.638-15.482 6.638-19.795 0-4.202-1.77-17.252-1.77-17.252s-18.032-9.953-31.086-10.174c-13.054-.11-31.529 10.174-31.529 10.174l-2.655 17.03c-2.212 12.387 7.412 20.46 7.412 20.46z"/></g><g><path fill="#f68f69" d="M179.44 65.25v15.482s7.854 13.271 15.156.332l-.664-15.814z"/></g><g><path fill="#f68f69" d="M179.44 65.25v15.482s7.854 13.271 15.156.332l-.664-15.814z"/></g><g><path fill="#f68f69" d="M182.648 28.423c-13.386 1.77-15.599 17.252-12.28 29.417 2.434 9.068 7.855 18.358 16.483 18.137 8.63-.222 13.718-11.944 15.267-19.132 2.434-11.612 1.991-31.297-19.47-28.422z"/></g><g><path fill="#f68f69" d="M171.915 54.41s-.554-5.086-4.647-3.427c-4.093 1.769.885 13.27 5.532 11.943 4.535-1.327-.885-8.515-.885-8.515z"/></g><g><path fill="#f68f69" d="M199.35 54.19s.111-5.086 4.425-3.76c4.204 1.439.111 13.271-4.646 12.276-4.646-.995.221-8.515.221-8.515z"/></g><g><path fill="#fcd032" d="M175.786 23.778c-11.395 4.977-14.05 29.306-5.531 34.062 5.088-22.45 33.077-12.718 35.843-23.556-10.51-15.04-15.71-16.92-30.312-10.506z"/></g><g><path fill="#d47557" d="M186.85 76.531c-1.992 0-4.094-.553-5.864-1.548-.332-.221-.442-.553-.22-.885.11-.332.552-.442.884-.221 3.208 1.88 7.744 1.77 10.952-.332.332-.221.664-.11.885.221.221.332.11.664-.221.885-1.88 1.216-4.204 1.88-6.416 1.88z"/></g><g><path fill="#3e3f43" d="M157.199 389.16l-2.655 10.838H139.72l7.412-5.42 1.549-5.418z"/></g><g><path fill="#3e3f43" d="M188.29 389.16v10.838h14.935l-7.523-5.42 1.106-5.418z"/></g><g/><g><path fill="#539ed7" d="M217.16 86.37c5.088 3.207 7.411 7.41 8.186 10.285.885 3.65 8.96 80.508 11.062 103.953l-13.496 4.866-12.722-82.5z"/></g><g><path fill="#3e3f43" d="M212.74 123.64c-.111 0-.222 0-.333-.11-.331-.222-.331-.554-.22-.885 4.314-6.967 5.088-15.925 1.77-23.445-.111-.221-.111-.332 0-.553.552-.996.995-1.99 1.437-3.097.553-1.106.996-2.211 1.55-3.207.11-.332.552-.442.884-.332.332.111.443.553.221.885-.553.995-.995 1.99-1.438 3.097-.442.995-.885 1.99-1.327 2.875 3.208 7.852 2.434 17.141-1.992 24.33-.11.331-.331.442-.553.442z"/></g><g><path fill="#3e3f43" d="M193.157 51.203c.664 0 1.106-.553 1.106-1.217 0-.663-.553-1.216-1.106-1.216-.664 0-1.217.553-1.217 1.216 0 .664.553 1.217 1.217 1.217z"/></g><g><path fill="#3e3f43" d="M179.766 51.203c.664 0 1.217-.553 1.217-1.217 0-.663-.553-1.216-1.217-1.216-.663 0-1.106.553-1.106 1.216 0 .664.443 1.217 1.106 1.217z"/></g><g><path fill="#f68f69" d="M150.006 193.42c-.664 3.981-1.328 7.962-1.438 10.174.774.774 1.99 1.99 2.544 3.65.443 1.216 1.77 7.077 2.102 8.294.553 2.433 0 2.654-.553 2.764-.553.111-1.88-2.764-3.43-6.524-.442-1.217-2.433.663-1.106 3.87.996 2.433 2.545 4.977 2.655 6.746.11 1.66-.995 3.65-1.88 3.87-1.217.333-3.983-4.312-6.417-8.293-2.876-5.087-2.212-7.41-2.212-17.473 0-2.101-.111-4.203-.111-6.414z"/></g><g><path fill="#539ed7" d="M156.095 86.37c-5.089 3.207-7.412 7.41-8.186 10.285L137.51 197.954l12.722.111 8.297-51.645 4.425-23.556z"/></g><g><path fill="#3e3f43" d="M159.852 123.64a.608.608 0 0 1-.554-.332c-4.535-7.189-5.31-16.478-1.99-24.33-.443-.885-.996-1.88-1.328-2.875-.443-1.106-.996-2.102-1.439-3.097-.11-.332 0-.774.332-.885.332-.11.664 0 .885.332.554.996.996 2.101 1.55 3.207a72.227 72.227 0 0 1 1.437 3.097c.11.221.11.332 0 .553-3.208 7.52-2.544 16.478 1.77 23.445.222.331.11.663-.22.884h-.443z"/></g><g><path fill="#3e3f43" d="M160.407 122.75l3.208 14.045-1.106.221-3.319-14.045z"/></g><g/><g><path fill="#fff" d="M176.116 59.276c3.76 0 7.301-2.986 11.062-2.986 3.651 0 7.744 1.88 11.395 1.88l.11 12.054c-6.084 9.068-17.59 8.958-23.563.553z"/></g><g/><g/><g/><g/><g><path fill="#3e3f43" d="M68.036 101.74a.991.991 0 0 0 .995-.995.991.991 0 0 0-.995-.995.991.991 0 0 0-.996.995c0 .553.443.996.996.996z"/></g><g><path fill="#3e3f43" d="M68.036 142.44a.991.991 0 0 0 .995-.995.991.991 0 0 0-.995-.995.991.991 0 0 0-.996.995c0 .553.443.996.996.996z"/></g><g><path fill="#3e3f43" d="M68.036 184.79a.991.991 0 0 0 .995-.995.991.991 0 0 0-.995-.995.991.991 0 0 0-.996.995c0 .553.443.996.996.996z"/></g><g><path fill="#3e3f43" d="M186.846 106.61a.991.991 0 0 0 .995-.995.991.991 0 0 0-.995-.995.991.991 0 0 0-.996.995c.11.553.553.996.996.996z"/></g><g><path fill="#3e3f43" d="M186.846 147.3a.991.991 0 0 0 .995-.995.991.991 0 0 0-.995-.995.991.991 0 0 0-.996.995c.11.553.553.996.996.996z"/></g><g><path fill="#3e3f43" d="M186.846 189.77a.991.991 0 0 0 .995-.995.991.991 0 0 0-.995-.995.991.991 0 0 0-.996.995c0 .553.553.996.996.996z"/></g></g></g></g></g></svg>